<svg width="1600" height="900" viewBox="0 0 1600 900" fill="none" xmlns="http://www.w3.org/2000/svg">
  <defs>
    <linearGradient id="bg" x1="0" y1="0" x2="1600" y2="900" gradientUnits="userSpaceOnUse">
      <stop stop-color="#ECFCCB"/>
      <stop offset="1" stop-color="#DCFCE7"/>
    </linearGradient>
    <linearGradient id="card" x1="0" y1="0" x2="1" y2="1">
      <stop stop-color="#FFFFFF"/>
      <stop offset="1" stop-color="#F8FAFC"/>
    </linearGradient>
  </defs>
  <rect width="1600" height="900" rx="32" fill="url(#bg)"/>
  <rect x="120" y="120" width="880" height="660" rx="28" fill="url(#card)" stroke="#D9F99D" stroke-width="3"/>
  <rect x="1060" y="120" width="420" height="200" rx="22" fill="#FFFFFF" stroke="#D9F99D" stroke-width="3"/>
  <rect x="1060" y="350" width="420" height="200" rx="22" fill="#FFFFFF" stroke="#BFDBFE" stroke-width="3"/>
  <rect x="1060" y="580" width="420" height="200" rx="22" fill="#FFFFFF" stroke="#DDD6FE" stroke-width="3"/>
  <rect x="180" y="190" width="320" height="20" rx="10" fill="#A3E635"/>
  <rect x="180" y="230" width="520" height="14" rx="7" fill="#CBD5E1"/>
  <rect x="180" y="258" width="470" height="14" rx="7" fill="#E2E8F0"/>
  <rect x="180" y="320" width="760" height="90" rx="16" fill="#F8FAFC" stroke="#E2E8F0"/>
  <rect x="180" y="430" width="760" height="90" rx="16" fill="#F8FAFC" stroke="#E2E8F0"/>
  <rect x="180" y="540" width="760" height="90" rx="16" fill="#F8FAFC" stroke="#E2E8F0"/>
  <circle cx="155" cy="155" r="26" fill="#84CC16"/>
  <path d="M145 155L153 163L168 147" stroke="white" stroke-width="4" stroke-linecap="round" stroke-linejoin="round"/>
</svg>
