<svg width="1600" height="900" viewBox="0 0 1600 900" fill="none" xmlns="http://www.w3.org/2000/svg">
  <rect width="1600" height="900" rx="32" fill="#0F172A"/>
  <rect x="120" y="120" width="1360" height="660" rx="28" fill="#111827" stroke="#334155" stroke-width="3"/>
  <rect x="200" y="200" width="1200" height="80" rx="14" fill="#1E293B"/>
  <rect x="200" y="320" width="360" height="380" rx="20" fill="#1E293B" stroke="#334155"/>
  <rect x="620" y="320" width="360" height="380" rx="20" fill="#1E293B" stroke="#334155"/>
  <rect x="1040" y="320" width="360" height="380" rx="20" fill="#1E293B" stroke="#334155"/>
  <circle cx="280" cy="390" r="38" fill="#84CC16"/>
  <circle cx="700" cy="390" r="38" fill="#A3E635"/>
  <circle cx="1120" cy="390" r="38" fill="#65A30D"/>
  <rect x="250" y="470" width="260" height="14" rx="7" fill="#94A3B8"/>
  <rect x="670" y="470" width="260" height="14" rx="7" fill="#94A3B8"/>
  <rect x="1090" y="470" width="260" height="14" rx="7" fill="#94A3B8"/>
  <rect x="250" y="510" width="180" height="12" rx="6" fill="#64748B"/>
  <rect x="670" y="510" width="180" height="12" rx="6" fill="#64748B"/>
  <rect x="1090" y="510" width="180" height="12" rx="6" fill="#64748B"/>
</svg>
